<?xml version="1.0" encoding="UTF-8"?>
<svg xmlns="http://www.w3.org/2000/svg" viewBox="0 0 583.41 583.41">
  <defs>
    <style>
      .cls-1 {
        stroke: #fff;
        stroke-width: 6.5px;
      }

      .cls-1, .cls-2 {
        fill: none;
      }

      .cls-1, .cls-2, .cls-3 {
        stroke-miterlimit: 10;
      }

      .cls-4 {
        fill: #6cb59e;
      }

      .cls-4, .cls-5 {
        stroke-width: 0px;
      }

      .cls-5, .cls-3 {
        fill: #991916;
      }

      .cls-2, .cls-3 {
        stroke: #991916;
        stroke-width: 4px;
      }
    </style>
  </defs>
  <g id="FONDO">
    <circle class="cls-4" cx="291.7" cy="291.7" r="291.7"/>
  </g>
  <g id="AUTO">
    <path class="cls-2" d="M254.09,198.23s-2.09-8.93,17.71-12.69c19.8-3.77,176.41-6.83,176.41-6.83,0,0,5.02-.42,6.14,4.18"/>
    <path class="cls-2" d="M265.52,207.86s8.23-11.71,18.97-11.3c10.74.42,16.6,6.14,18.27,10.46"/>
    <path class="cls-2" d="M415.02,207.02s7.25-11.71,19.8-11.16c12.55.56,17.85,11.16,17.85,11.16"/>
    <path class="cls-2" d="M256.32,199.77s7.53,3.76,12.97-11.3"/>
    <path class="cls-3" d="M330.78,173.83s-14.5,3.63,0,7.11c0,0,3.49-2.09,0-7.11Z"/>
    <path class="cls-2" d="M313.35,179.83l21.2-20.36s4.04-4.88,12.13-5.16,70.84-.56,86.04,1.53c0,0,12.27-2.51,3.07,4.18l5.72,6.95"/>
    <path class="cls-3" d="M451.34,185.35l6,12.81s-.42.57-3.49-1.52l-2.51-11.29Z"/>
    <polygon class="cls-3" points="388.87 159.61 391.8 178.01 387.19 178.01 388.87 159.61"/>
    <polygon class="cls-3" points="375.13 187.64 382.38 187.08 387.19 187.64 382.38 188.47 375.13 187.64"/>
    <polygon class="cls-2" points="301.64 190.01 304.43 187.27 311.96 187.27 311.96 190.01 301.64 190.01"/>
    <polygon class="cls-3" points="308.61 187.77 308.61 190.01 311.96 190.01 311.96 187.27 308.61 187.77"/>
    <path class="cls-3" d="M266.25,206.9s17.7-19.63,35.95-1.07l-2.65-3.45-5.66-3.76-6.98-1.86-5.02-.06-6.9,2.5-4.69,3.45-4.06,4.27Z"/>
    <path class="cls-5" d="M254.42,197.72s.46-5.84,12.88-10.7l-2.96.5-6.5,3.41-2.96,3.39-.85,2.22.4,1.17Z"/>
    <path class="cls-3" d="M415.59,206.05s17.7-19.63,35.95-1.07l-2.65-3.45-5.66-3.76-6.98-1.86-5.02-.06-6.9,2.5-4.69,3.45-4.06,4.27Z"/>
    <circle class="cls-2" cx="423.26" cy="187.08" r="4.08"/>
  </g>
  <g id="CAMINO">
    <path class="cls-1" d="M118.94,222.56h338.11s3.07-1.26,3.28,3.56,0,65.68,0,65.68c0,0-.07,4.53-3.28,4.57s-35.84,0-35.84,0c0,0-3.81-.38-2.12,3.17s24.29,60.87-5.21,109.61c-29.49,48.74-51.36,66.1-124.21,70.49s-111.33-65.06-116.14-81.37c0,0-14.43-28.1-7.74-101.91h-46.86s-5.02-1.22-5.02-5.82v-64.43s0-3.56,5.02-3.56Z"/>
    <path class="cls-1" d="M165.8,296.36l136.66-1.22s61.01,7.74,45.11,68.61-88.48,36.19-99.36,8.99c-10.88-27.19-7.74-41.21-6.48-73l.21-3.66"/>
    <path class="cls-1" d="M164.64,222.41v-93.25s-.31-8.58,8.68-8.89,61.19,0,61.19,0c0,0,7.22-.84,7.32,8.47s0,93.29,0,93.29"/>
    <line class="cls-1" x1="205.26" y1="139.16" x2="205.26" y2="162.87"/>
    <line class="cls-1" x1="205.26" y1="182.35" x2="205.26" y2="206.06"/>
    <line class="cls-1" x1="140" y1="258.81" x2="152.97" y2="258.81"/>
    <line class="cls-1" x1="179.32" y1="258.81" x2="205.82" y2="258.81"/>
    <line class="cls-1" x1="234.62" y1="258.81" x2="261.11" y2="258.81"/>
    <path class="cls-1" d="M287.82,258.81s21.48-.14,24.96,1.53"/>
    <path class="cls-1" d="M338.86,268.58s13.95,3.07,21.34,12.13"/>
    <line class="cls-1" x1="356.99" y1="259.58" x2="381.53" y2="259.58"/>
    <line class="cls-1" x1="399.87" y1="259.58" x2="424.41" y2="259.58"/>
    <path class="cls-1" d="M377.9,303.16s8.51,9.06,10.18,22.31"/>
    <path class="cls-1" d="M390.87,353.64s.84,14.64-2.79,23.71"/>
    <path class="cls-1" d="M373.58,402.17s-9.76,12.41-18.13,17.01"/>
    <path class="cls-1" d="M330.63,433.41s-9.06,4.32-23.43,4.74"/>
    <path class="cls-1" d="M278.2,436.34s-13.25-.42-24.26-8.23"/>
    <path class="cls-1" d="M231.2,411.8s-10.46-7.81-15.2-19.24"/>
    <path class="cls-1" d="M207.77,365.22s-2.79-14.64-1.95-24.54"/>
    <line class="cls-1" x1="205.82" y1="301.35" x2="205.66" y2="313.48"/>
  </g>
</svg>